<?xml version="1.0" encoding="UTF-8" standalone="no"?>
<!-- Created with Inkscape (http://www.inkscape.org/) -->

<svg
   width="100.21252mm"
   height="60.348629mm"
   viewBox="0 0 100.21252 60.348629"
   version="1.1"
   id="svg1134"
   inkscape:version="1.1 (c68e22c387, 2021-05-23)"
   sodipodi:docname="gamma-distribution.svg"
   inkscape:export-filename="E:\My Toolboxes\bistablehistory\vignettes\gamma-distribution.png"
   inkscape:export-xdpi="300"
   inkscape:export-ydpi="300"
   xmlns:inkscape="http://www.inkscape.org/namespaces/inkscape"
   xmlns:sodipodi="http://sodipodi.sourceforge.net/DTD/sodipodi-0.dtd"
   xmlns="http://www.w3.org/2000/svg"
   xmlns:svg="http://www.w3.org/2000/svg">
  <sodipodi:namedview
     id="namedview1136"
     pagecolor="#ffffff"
     bordercolor="#666666"
     borderopacity="1.0"
     inkscape:pageshadow="2"
     inkscape:pageopacity="0.0"
     inkscape:pagecheckerboard="0"
     inkscape:document-units="mm"
     showgrid="false"
     fit-margin-top="0"
     fit-margin-left="0"
     fit-margin-right="0"
     fit-margin-bottom="0"
     inkscape:zoom="1.0141844"
     inkscape:cx="30.073427"
     inkscape:cy="142.47903"
     inkscape:window-width="1920"
     inkscape:window-height="1137"
     inkscape:window-x="1912"
     inkscape:window-y="-8"
     inkscape:window-maximized="1"
     inkscape:current-layer="layer1" />
  <defs
     id="defs1131">
    <clipPath
       clipPathUnits="userSpaceOnUse"
       id="clipPath2807">
      <path
         d="M 33.535,5.48 H 277.519 V 140.175 H 33.535 Z"
         id="path2805" />
    </clipPath>
    <clipPath
       clipPathUnits="userSpaceOnUse"
       id="clipPath2817">
      <path
         d="m 33.535,116 h 243.984 v 2 H 33.535 Z"
         id="path2815" />
    </clipPath>
    <clipPath
       clipPathUnits="userSpaceOnUse"
       id="clipPath2827">
      <path
         d="m 33.535,82 h 243.984 v 2 H 33.535 Z"
         id="path2825" />
    </clipPath>
    <clipPath
       clipPathUnits="userSpaceOnUse"
       id="clipPath2837">
      <path
         d="m 33.535,48 h 243.984 v 2 H 33.535 Z"
         id="path2835" />
    </clipPath>
    <clipPath
       clipPathUnits="userSpaceOnUse"
       id="clipPath2847">
      <path
         d="m 33.535,14 h 243.984 v 2 H 33.535 Z"
         id="path2845" />
    </clipPath>
    <clipPath
       clipPathUnits="userSpaceOnUse"
       id="clipPath2857">
      <path
         d="m 33.535,133 h 243.984 v 2 H 33.535 Z"
         id="path2855" />
    </clipPath>
    <clipPath
       clipPathUnits="userSpaceOnUse"
       id="clipPath2867">
      <path
         d="m 33.535,99 h 243.984 v 2 H 33.535 Z"
         id="path2865" />
    </clipPath>
    <clipPath
       clipPathUnits="userSpaceOnUse"
       id="clipPath2877">
      <path
         d="m 33.535,65 h 243.984 v 2 H 33.535 Z"
         id="path2875" />
    </clipPath>
    <clipPath
       clipPathUnits="userSpaceOnUse"
       id="clipPath2887">
      <path
         d="m 33.535,31 h 243.984 v 2 H 33.535 Z"
         id="path2885" />
    </clipPath>
    <clipPath
       clipPathUnits="userSpaceOnUse"
       id="clipPath2897">
      <path
         d="m 46,5.48 h 2 v 134.695 h -2 z"
         id="path2895" />
    </clipPath>
    <clipPath
       clipPathUnits="userSpaceOnUse"
       id="clipPath2907">
      <path
         d="m 105,5.48 h 2 v 134.695 h -2 z"
         id="path2905" />
    </clipPath>
    <clipPath
       clipPathUnits="userSpaceOnUse"
       id="clipPath2917">
      <path
         d="m 164,5.48 h 2 v 134.695 h -2 z"
         id="path2915" />
    </clipPath>
    <clipPath
       clipPathUnits="userSpaceOnUse"
       id="clipPath2927">
      <path
         d="m 223,5.48 h 2 v 134.695 h -2 z"
         id="path2925" />
    </clipPath>
  </defs>
  <g
     inkscape:label="Layer 1"
     inkscape:groupmode="layer"
     id="layer1"
     transform="translate(-4.1285245,-1.5548745)">
    <g
       id="g2791"
       inkscape:label="example-distribution"
       transform="matrix(0.35277777,0,0,0.35277777,4.3167279,1.7430779)"
       inkscape:export-filename="C:\Users\sasha\g2791.png"
       inkscape:export-xdpi="300"
       inkscape:export-ydpi="300">
      <g
         id="g2793">
        <path
           d="M 0,0 H 283 V 170 H 0 Z"
           style="fill:#ffffff;fill-opacity:1;fill-rule:nonzero;stroke:none"
           id="path2795" />
        <path
           d="M 0,0 H 283 V 170 H 0 Z"
           style="fill:#ffffff;fill-opacity:1;fill-rule:nonzero;stroke:none"
           id="path2797" />
        <path
           d="M 0,0 H 283 V 170 H 0 Z"
           style="fill:none;stroke:#ffffff;stroke-width:1.06698;stroke-linecap:round;stroke-linejoin:round;stroke-miterlimit:10;stroke-dasharray:none;stroke-opacity:1"
           id="path2799" />
      </g>
      <g
         id="g2801">
        <g
           id="g2803"
           clip-path="url(#clipPath2807)">
          <path
             d="M 33.535,5.48 H 277.519 V 140.175 H 33.535 Z"
             style="fill:#ebebeb;fill-opacity:1;fill-rule:nonzero;stroke:none"
             id="path2809" />
        </g>
      </g>
      <g
         id="g2811">
        <g
           id="g2813"
           clip-path="url(#clipPath2817)">
          <path
             d="M 33.535,117.035 H 277.52"
             style="fill:none;stroke:#ffffff;stroke-width:0.51215;stroke-linecap:butt;stroke-linejoin:round;stroke-miterlimit:10;stroke-dasharray:none;stroke-opacity:1"
             id="path2819" />
        </g>
      </g>
      <g
         id="g2821">
        <g
           id="g2823"
           clip-path="url(#clipPath2827)">
          <path
             d="M 33.535,83.004 H 277.52"
             style="fill:none;stroke:#ffffff;stroke-width:0.51215;stroke-linecap:butt;stroke-linejoin:round;stroke-miterlimit:10;stroke-dasharray:none;stroke-opacity:1"
             id="path2829" />
        </g>
      </g>
      <g
         id="g2831">
        <g
           id="g2833"
           clip-path="url(#clipPath2837)">
          <path
             d="M 33.535,48.969 H 277.52"
             style="fill:none;stroke:#ffffff;stroke-width:0.51215;stroke-linecap:butt;stroke-linejoin:round;stroke-miterlimit:10;stroke-dasharray:none;stroke-opacity:1"
             id="path2839" />
        </g>
      </g>
      <g
         id="g2841">
        <g
           id="g2843"
           clip-path="url(#clipPath2847)">
          <path
             d="M 33.535,14.938 H 277.52"
             style="fill:none;stroke:#ffffff;stroke-width:0.51215;stroke-linecap:butt;stroke-linejoin:round;stroke-miterlimit:10;stroke-dasharray:none;stroke-opacity:1"
             id="path2849" />
        </g>
      </g>
      <g
         id="g2851">
        <g
           id="g2853"
           clip-path="url(#clipPath2857)">
          <path
             d="M 33.535,134.055 H 277.52"
             style="fill:none;stroke:#ffffff;stroke-width:1.06698;stroke-linecap:butt;stroke-linejoin:round;stroke-miterlimit:10;stroke-dasharray:none;stroke-opacity:1"
             id="path2859" />
        </g>
      </g>
      <g
         id="g2861">
        <g
           id="g2863"
           clip-path="url(#clipPath2867)">
          <path
             d="M 33.535,100.02 H 277.52"
             style="fill:none;stroke:#ffffff;stroke-width:1.06698;stroke-linecap:butt;stroke-linejoin:round;stroke-miterlimit:10;stroke-dasharray:none;stroke-opacity:1"
             id="path2869" />
        </g>
      </g>
      <g
         id="g2871">
        <g
           id="g2873"
           clip-path="url(#clipPath2877)">
          <path
             d="M 33.535,65.988 H 277.52"
             style="fill:none;stroke:#ffffff;stroke-width:1.06698;stroke-linecap:butt;stroke-linejoin:round;stroke-miterlimit:10;stroke-dasharray:none;stroke-opacity:1"
             id="path2879" />
        </g>
      </g>
      <g
         id="g2881">
        <g
           id="g2883"
           clip-path="url(#clipPath2887)">
          <path
             d="M 33.535,31.953 H 277.52"
             style="fill:none;stroke:#ffffff;stroke-width:1.06698;stroke-linecap:butt;stroke-linejoin:round;stroke-miterlimit:10;stroke-dasharray:none;stroke-opacity:1"
             id="path2889" />
        </g>
      </g>
      <g
         id="g2891">
        <g
           id="g2893"
           clip-path="url(#clipPath2897)">
          <path
             d="M 46.844,140.176 V 5.48"
             style="fill:none;stroke:#ffffff;stroke-width:1.06698;stroke-linecap:butt;stroke-linejoin:round;stroke-miterlimit:10;stroke-dasharray:none;stroke-opacity:1"
             id="path2899" />
        </g>
      </g>
      <g
         id="g2901">
        <g
           id="g2903"
           clip-path="url(#clipPath2907)">
          <path
             d="M 106,140.176 V 5.48"
             style="fill:none;stroke:#ffffff;stroke-width:1.06698;stroke-linecap:butt;stroke-linejoin:round;stroke-miterlimit:10;stroke-dasharray:none;stroke-opacity:1"
             id="path2909" />
        </g>
      </g>
      <g
         id="g2911">
        <g
           id="g2913"
           clip-path="url(#clipPath2917)">
          <path
             d="M 165.16,140.176 V 5.48"
             style="fill:none;stroke:#ffffff;stroke-width:1.06698;stroke-linecap:butt;stroke-linejoin:round;stroke-miterlimit:10;stroke-dasharray:none;stroke-opacity:1"
             id="path2919" />
        </g>
      </g>
      <g
         id="g2921">
        <g
           id="g2923"
           clip-path="url(#clipPath2927)">
          <path
             d="M 224.316,140.176 V 5.48"
             style="fill:none;stroke:#ffffff;stroke-width:1.06698;stroke-linecap:butt;stroke-linejoin:round;stroke-miterlimit:10;stroke-dasharray:none;stroke-opacity:1"
             id="path2929" />
        </g>
      </g>
      <g
         id="g2931">
        <path
           d="m 44.625,121.238 h 4.438 v 12.816 h -4.438 z"
           style="fill:#595959;fill-opacity:0.74902;fill-rule:nonzero;stroke:none"
           id="path2933" />
        <path
           d="m 49.063,124.086 h 4.438 v 9.969 h -4.438 z"
           style="fill:#595959;fill-opacity:0.74902;fill-rule:nonzero;stroke:none"
           id="path2935" />
        <path
           d="m 53.496,118.391 h 4.438 v 15.664 h -4.438 z"
           style="fill:#595959;fill-opacity:0.74902;fill-rule:nonzero;stroke:none"
           id="path2937" />
        <path
           d="m 57.934,102.73 h 4.438 v 31.324 h -4.438 z"
           style="fill:#595959;fill-opacity:0.74902;fill-rule:nonzero;stroke:none"
           id="path2939" />
        <path
           d="m 62.371,99.883 h 4.438 v 34.172 h -4.438 z"
           style="fill:#595959;fill-opacity:0.74902;fill-rule:nonzero;stroke:none"
           id="path2941" />
        <path
           d="m 66.805,77.102 h 4.438 v 56.953 h -4.438 z"
           style="fill:#595959;fill-opacity:0.74902;fill-rule:nonzero;stroke:none"
           id="path2943" />
        <path
           d="m 71.242,64.285 h 4.438 v 69.77 h -4.438 z"
           style="fill:#595959;fill-opacity:0.74902;fill-rule:nonzero;stroke:none"
           id="path2945" />
        <path
           d="m 75.676,31.535 h 4.438 v 102.52 h -4.438 z"
           style="fill:#595959;fill-opacity:0.74902;fill-rule:nonzero;stroke:none"
           id="path2947" />
        <path
           d="m 80.113,17.297 h 4.438 v 116.758 h -4.438 z"
           style="fill:#595959;fill-opacity:0.74902;fill-rule:nonzero;stroke:none"
           id="path2949" />
        <path
           d="m 84.551,11.602 h 4.438 v 122.453 h -4.438 z"
           style="fill:#595959;fill-opacity:0.74902;fill-rule:nonzero;stroke:none"
           id="path2951" />
        <path
           d="m 88.984,24.418 h 4.438 v 109.637 h -4.438 z"
           style="fill:#595959;fill-opacity:0.74902;fill-rule:nonzero;stroke:none"
           id="path2953" />
        <path
           d="m 93.422,37.23 h 4.438 v 96.824 h -4.438 z"
           style="fill:#595959;fill-opacity:0.74902;fill-rule:nonzero;stroke:none"
           id="path2955" />
        <path
           d="m 97.859,22.992 h 4.438 v 111.063 h -4.438 z"
           style="fill:#595959;fill-opacity:0.74902;fill-rule:nonzero;stroke:none"
           id="path2957" />
        <path
           d="m 102.293,32.961 h 4.438 v 101.094 h -4.438 z"
           style="fill:#595959;fill-opacity:0.74902;fill-rule:nonzero;stroke:none"
           id="path2959" />
        <path
           d="m 106.73,15.875 h 4.438 v 118.18 h -4.438 z"
           style="fill:#595959;fill-opacity:0.74902;fill-rule:nonzero;stroke:none"
           id="path2961" />
        <path
           d="m 111.168,41.504 h 4.438 v 92.551 h -4.438 z"
           style="fill:#595959;fill-opacity:0.74902;fill-rule:nonzero;stroke:none"
           id="path2963" />
        <path
           d="m 115.602,45.777 h 4.438 v 88.277 h -4.438 z"
           style="fill:#595959;fill-opacity:0.74902;fill-rule:nonzero;stroke:none"
           id="path2965" />
        <path
           d="m 120.039,51.473 h 4.438 v 82.582 h -4.438 z"
           style="fill:#595959;fill-opacity:0.74902;fill-rule:nonzero;stroke:none"
           id="path2967" />
        <path
           d="m 124.477,62.863 h 4.438 v 71.191 h -4.438 z"
           style="fill:#595959;fill-opacity:0.74902;fill-rule:nonzero;stroke:none"
           id="path2969" />
        <path
           d="m 128.91,79.949 h 4.438 v 54.105 h -4.438 z"
           style="fill:#595959;fill-opacity:0.74902;fill-rule:nonzero;stroke:none"
           id="path2971" />
        <path
           d="m 133.348,81.371 h 4.438 v 52.684 h -4.438 z"
           style="fill:#595959;fill-opacity:0.74902;fill-rule:nonzero;stroke:none"
           id="path2973" />
        <path
           d="m 137.781,92.762 h 4.438 v 41.293 h -4.438 z"
           style="fill:#595959;fill-opacity:0.74902;fill-rule:nonzero;stroke:none"
           id="path2975" />
        <path
           d="m 142.219,94.188 h 4.438 v 39.867 h -4.438 z"
           style="fill:#595959;fill-opacity:0.74902;fill-rule:nonzero;stroke:none"
           id="path2977" />
        <path
           d="m 146.656,104.152 h 4.438 v 29.902 h -4.438 z"
           style="fill:#595959;fill-opacity:0.74902;fill-rule:nonzero;stroke:none"
           id="path2979" />
        <path
           d="m 151.09,102.73 h 4.438 v 31.324 h -4.438 z"
           style="fill:#595959;fill-opacity:0.74902;fill-rule:nonzero;stroke:none"
           id="path2981" />
        <path
           d="m 155.527,111.273 h 4.438 v 22.781 h -4.438 z"
           style="fill:#595959;fill-opacity:0.74902;fill-rule:nonzero;stroke:none"
           id="path2983" />
        <path
           d="m 159.965,109.848 h 4.438 v 24.207 h -4.438 z"
           style="fill:#595959;fill-opacity:0.74902;fill-rule:nonzero;stroke:none"
           id="path2985" />
        <path
           d="m 164.398,122.664 h 4.438 v 11.391 h -4.438 z"
           style="fill:#595959;fill-opacity:0.74902;fill-rule:nonzero;stroke:none"
           id="path2987" />
        <path
           d="m 168.836,119.816 h 4.438 v 14.238 h -4.438 z"
           style="fill:#595959;fill-opacity:0.74902;fill-rule:nonzero;stroke:none"
           id="path2989" />
        <path
           d="m 173.273,122.664 h 4.438 v 11.391 h -4.438 z"
           style="fill:#595959;fill-opacity:0.74902;fill-rule:nonzero;stroke:none"
           id="path2991" />
        <path
           d="m 177.707,129.781 h 4.438 v 4.273 h -4.438 z"
           style="fill:#595959;fill-opacity:0.74902;fill-rule:nonzero;stroke:none"
           id="path2993" />
        <path
           d="m 182.145,124.086 h 4.438 v 9.969 h -4.438 z"
           style="fill:#595959;fill-opacity:0.74902;fill-rule:nonzero;stroke:none"
           id="path2995" />
        <path
           d="m 186.582,126.934 h 4.438 v 7.121 h -4.438 z"
           style="fill:#595959;fill-opacity:0.74902;fill-rule:nonzero;stroke:none"
           id="path2997" />
        <path
           d="m 191.016,128.359 h 4.438 v 5.695 h -4.438 z"
           style="fill:#595959;fill-opacity:0.74902;fill-rule:nonzero;stroke:none"
           id="path2999" />
        <path
           d="m 195.453,131.207 h 4.438 v 2.848 h -4.438 z"
           style="fill:#595959;fill-opacity:0.74902;fill-rule:nonzero;stroke:none"
           id="path3001" />
        <path
           d="m 199.887,129.781 h 4.438 v 4.273 h -4.438 z"
           style="fill:#595959;fill-opacity:0.74902;fill-rule:nonzero;stroke:none"
           id="path3003" />
        <path
           d="m 204.324,132.629 h 4.438 v 1.426 h -4.438 z"
           style="fill:#595959;fill-opacity:0.74902;fill-rule:nonzero;stroke:none"
           id="path3005" />
        <path
           d="m 244.25,132.629 h 4.438 v 1.426 h -4.438 z"
           style="fill:#595959;fill-opacity:0.74902;fill-rule:nonzero;stroke:none"
           id="path3007" />
        <path
           d="m 261.996,132.629 h 4.438 v 1.426 h -4.438 z"
           style="fill:#595959;fill-opacity:0.74902;fill-rule:nonzero;stroke:none"
           id="path3009" />
        <path
           d="m 47.766,133.938 2.172,-1.805 2.175,-4.227 2.172,-6.375 2.176,-8.039 2.172,-9.168 2.176,-9.812 2.171,-10.012 2.176,-9.863 2.172,-9.414 2.176,-8.754 2.172,-7.93 2.176,-7 2.171,-6.012 2.176,-5 2.172,-3.992 2.172,-3.012 2.176,-2.082 2.172,-1.207 2.175,-0.402 2.172,0.332 2.176,0.988 2.172,1.567 2.176,2.078 2.172,2.508 2.175,2.871 2.172,3.176 2.176,3.414 2.172,3.601 2.176,3.738 2.172,3.833 2.171,3.882 2.176,3.903 2.172,3.886 2.176,3.848 2.172,3.785 2.176,3.703 2.171,3.606 2.176,3.5 2.172,3.379 2.176,3.25 2.172,3.121 2.176,2.984 2.171,2.844 2.176,2.707 2.172,2.57 2.172,2.43 2.176,2.301 2.172,2.164 2.175,2.043 2.172,1.914 2.176,1.801 2.172,1.683 2.176,1.574 2.172,1.469 2.175,1.375 2.172,1.278 2.176,1.187 2.172,1.105 2.172,1.024 2.176,0.953 2.171,0.879 2.176,0.816 2.172,0.754 2.176,0.696 2.172,0.644 2.175,0.59 2.172,0.547 2.176,0.504 2.172,0.461 2.176,0.425 2.172,0.391 2.175,0.359 2.172,0.332 2.172,0.301 2.176,0.278 2.172,0.254 2.176,0.23 2.172,0.215 2.175,0.195 2.172,0.176 2.176,0.164 2.172,0.148 2.176,0.133 2.171,0.125 2.176,0.114 2.172,0.101 2.176,0.094 2.172,0.086 2.172,0.074 2.175,0.07 2.172,0.067 2.176,0.058 2.172,0.051 2.176,0.051 2.172,0.043 2.175,0.039 2.172,0.035 2.176,0.035 2.172,0.028 2.176,0.027"
           style="fill:none;stroke:#000000;stroke-width:2.13396;stroke-linecap:butt;stroke-linejoin:round;stroke-miterlimit:10;stroke-dasharray:none;stroke-opacity:1"
           id="path3011" />
        <text
           transform="translate(17.480469,136.91797)"
           style="font-variant:normal;font-weight:normal;font-size:8px;font-family:Arial;-inkscape-font-specification:ArialMT;writing-mode:lr-tb;fill:#000000;fill-opacity:1;fill-rule:nonzero;stroke:none"
           id="text3021"><tspan
             x="0 4.448 6.664"
             y="0"
             sodipodi:role="line"
             id="tspan3013">0.0</tspan><tspan
             x="0 4.448 6.664"
             y="-34.03516"
             sodipodi:role="line"
             id="tspan3015">0.1</tspan><tspan
             x="0 4.448 6.664"
             y="-68.066406"
             sodipodi:role="line"
             id="tspan3017">0.2</tspan><tspan
             x="0 4.448 6.664"
             y="-102.10157"
             sodipodi:role="line"
             id="tspan3019">0.3</tspan></text>
        <path
           d="m 30.793,134.055 h 2.742"
           style="fill:none;stroke:#333333;stroke-width:0.51215;stroke-linecap:butt;stroke-linejoin:round;stroke-miterlimit:10;stroke-dasharray:none;stroke-opacity:1"
           id="path3023" />
        <path
           d="m 30.793,100.02 h 2.742"
           style="fill:none;stroke:#333333;stroke-width:0.51215;stroke-linecap:butt;stroke-linejoin:round;stroke-miterlimit:10;stroke-dasharray:none;stroke-opacity:1"
           id="path3025" />
        <path
           d="m 30.793,65.988 h 2.742"
           style="fill:none;stroke:#333333;stroke-width:0.51215;stroke-linecap:butt;stroke-linejoin:round;stroke-miterlimit:10;stroke-dasharray:none;stroke-opacity:1"
           id="path3027" />
        <path
           d="m 30.793,31.953 h 2.742"
           style="fill:none;stroke:#333333;stroke-width:0.51215;stroke-linecap:butt;stroke-linejoin:round;stroke-miterlimit:10;stroke-dasharray:none;stroke-opacity:1"
           id="path3029" />
        <path
           d="m 46.844,142.918 v -2.742"
           style="fill:none;stroke:#333333;stroke-width:0.51215;stroke-linecap:butt;stroke-linejoin:round;stroke-miterlimit:10;stroke-dasharray:none;stroke-opacity:1"
           id="path3031" />
        <path
           d="m 106,142.918 v -2.742"
           style="fill:none;stroke:#333333;stroke-width:0.51215;stroke-linecap:butt;stroke-linejoin:round;stroke-miterlimit:10;stroke-dasharray:none;stroke-opacity:1"
           id="path3033" />
        <path
           d="m 165.16,142.918 v -2.742"
           style="fill:none;stroke:#333333;stroke-width:0.51215;stroke-linecap:butt;stroke-linejoin:round;stroke-miterlimit:10;stroke-dasharray:none;stroke-opacity:1"
           id="path3035" />
        <path
           d="m 224.316,142.918 v -2.742"
           style="fill:none;stroke:#333333;stroke-width:0.51215;stroke-linecap:butt;stroke-linejoin:round;stroke-miterlimit:10;stroke-dasharray:none;stroke-opacity:1"
           id="path3037" />
        <text
           transform="translate(41.28125,150.83594)"
           style="font-variant:normal;font-weight:normal;font-size:8px;font-family:Arial;-inkscape-font-specification:ArialMT;writing-mode:lr-tb;fill:#000000;fill-opacity:1;fill-rule:nonzero;stroke:none"
           id="text3041"><tspan
             x="0 4.448 6.664 59.144001 63.591999 65.807999 118.31641 122.7644 124.98041 177.4604 181.9084 184.1244"
             y="0"
             sodipodi:role="line"
             id="tspan3039">0.02.55.07.5</tspan></text>
        <text
           transform="translate(83.816406,162.41797)"
           style="font-variant:normal;font-weight:normal;font-size:10px;font-family:Arial;-inkscape-font-specification:ArialMT;writing-mode:lr-tb;fill:#000000;fill-opacity:1;fill-rule:nonzero;stroke:none"
           id="text3045"><tspan
             x="0 7.2199998 12.78 21.110001 23.33 28.889999 34.450001 40.009998 45.009998 50.57 53.34 58.900002 64.459999 70.019997 75.019997 80.580002 83.349998 88.910004 94.470001 97.800003 103.36 106.13 108.35 113.91 119.47 122.24 125.01 130.00999 135.57001 140.57001"
             y="0"
             sodipodi:role="line"
             id="tspan3043">Dominance phase duration [sec]</tspan></text>
        <text
           transform="rotate(-90,63.021485,50.384766)"
           style="font-variant:normal;font-weight:normal;font-size:10px;font-family:Arial;-inkscape-font-specification:ArialMT;writing-mode:lr-tb;fill:#000000;fill-opacity:1;fill-rule:nonzero;stroke:none"
           id="text3049"><tspan
             x="0 6.6599998 9.9899998 15.55 21.110001 26.67 32.23 34.450001 36.669998 38.889999 41.66 46.66 49.43 54.990002 60.549999 66.110001 71.110001 73.330002 76.099998"
             y="0"
             sodipodi:role="line"
             id="tspan3047">Probability density</tspan></text>
      </g>
    </g>
  </g>
</svg>
