<?xml version="1.0" encoding="UTF-8" standalone="no"?>
<!-- Created with Inkscape (http://www.inkscape.org/) -->

<svg
   width="156.62119mm"
   height="40.804398mm"
   viewBox="0 0 156.62119 40.804398"
   version="1.1"
   id="svg362"
   inkscape:version="1.1 (c68e22c387, 2021-05-23)"
   sodipodi:docname="nc-stimulus.svg"
   inkscape:export-filename="E:\My Toolboxes\bistablehistory\vignettes\nc-stimulus.png"
   inkscape:export-xdpi="300"
   inkscape:export-ydpi="300"
   xmlns:inkscape="http://www.inkscape.org/namespaces/inkscape"
   xmlns:sodipodi="http://sodipodi.sourceforge.net/DTD/sodipodi-0.dtd"
   xmlns="http://www.w3.org/2000/svg"
   xmlns:svg="http://www.w3.org/2000/svg">
  <sodipodi:namedview
     id="namedview364"
     pagecolor="#ffffff"
     bordercolor="#666666"
     borderopacity="1.0"
     inkscape:pageshadow="2"
     inkscape:pageopacity="0.0"
     inkscape:pagecheckerboard="0"
     inkscape:document-units="mm"
     showgrid="false"
     inkscape:zoom="1.4342733"
     inkscape:cx="363.59877"
     inkscape:cy="80.528586"
     inkscape:window-width="1920"
     inkscape:window-height="1137"
     inkscape:window-x="1912"
     inkscape:window-y="-8"
     inkscape:window-maximized="1"
     inkscape:current-layer="layer1"
     fit-margin-top="0"
     fit-margin-left="0"
     fit-margin-right="0"
     fit-margin-bottom="0" />
  <defs
     id="defs359">
    <clipPath
       id="clipPath6548"
       clipPathUnits="userSpaceOnUse">
      <path
         id="path6550"
         d="m -0.40316976,0.53017425 c 0.1017938,-0.0626794 0.13914175,-0.16811311 0.18545497,-0.27066409 0.0278112,-0.0615825 0.0524963,-0.10192 0.0902214,-0.16039417 0.0143214,-0.0221977 0.0252297,-0.04776338 0.04511065,-0.06515962 0.07478617,-0.06543777 0.17446279,-0.10811956 0.27066398,-0.13031951 0.0230231,-0.0053148 0.0470407,-0.0052087 0.0701722,-0.01002507 0.0170766,-0.003554 0.0329784,-0.0118223 0.0501229,-0.0150379 0.005347,-9.5434e-4 0.0476169,8.4768e-4 0.0551353,0 0.0420063,-0.004668 0.0866052,-0.0107636 0.12530742,0.0150379 3.0875e-4,2.2455e-4 0.0513458,0.04254285 0.0551354,0.05012172 0.0342923,0.06858542 0.0438017,0.21378872 0.0150368,0.28570086 -0.009059,0.0226476 -0.0422863,0.0583945 -0.0551351,0.0701724 -0.0383604,0.0351635 -0.11803447,0.007946 -0.16039364,0.0200493 -0.0246369,0.007034 -0.0577128,0.0348357 -0.0751844,0.0501228 -0.0104379,0.009134 -0.0697222,0.14125401 -0.0250615,0.16039417 0.007679,0.003289 0.0167077,0 0.0250615,0 0.0117274,0 0.0349052,0.005103 0.0451106,0 0.0360945,-0.0180474 0.062735,-0.0527105 0.0902213,-0.0801964 0.001182,-0.001179 0.003622,9.5434e-4 0.005013,0 0.0239839,-0.0159894 0.0353284,-0.0436019 0.0601476,-0.0601482 0.0392592,-0.0261728 0.1135361,-0.0290456 0.15538115,-0.0100253 0.007605,0.003458 0.0130983,0.0104071 0.020049,0.0150368 0.0131671,0.008773 0.0467706,0.0199825 0.0501231,0.0400978 0.008022,0.0481328 0.009993,0.11058205 0.005013,0.16039417 -0.003176,0.0317655 -0.0155052,0.0623494 -0.010024,0.0952332 0.006936,0.0416169 0.0303761,0.035691 0.0501229,0.075185 0.004483,0.008964 0,0.0200482 0,0.0300735 0,0.008996 0.003213,0.0417684 0,0.0501228 -0.0163799,0.0425878 -0.0440238,0.0640725 -0.0751844,0.0952334 -0.0493201,0.0493209 -0.0541732,0.0551354 -0.12029528,0.0551354 -0.0232503,0 -0.0507317,0.003522 -0.070172,-0.0150368 -0.0275594,-0.0263064 -0.0476929,-0.0594605 -0.0701722,-0.0902217 -0.004724,-0.006461 -0.0238168,-0.0469943 -0.0400983,-0.0551343 -0.008966,-0.004488 -0.0200492,0 -0.0300738,0 -0.0408643,0 -0.0619588,0.0101312 -0.0952336,0.0350861 -0.002988,0.002237 -0.006683,0.003342 -0.0100241,0.005007 -0.006683,0.003342 -0.0141513,0.005442 -0.0200493,0.0100254 -0.0267525,0.0208069 -0.044216,0.0446626 -0.0751844,0.0601471 -0.0293788,0.0146887 -0.09402495,0.0174215 -0.12029516,0.0200493 -0.02275515,0.002282 -0.10743424,0.006429 -0.12029508,0 -0.0137775,-0.006885 -0.0233271,-0.0201237 -0.0350861,-0.0300747 -0.0421117,-0.0356323 -0.085754,-0.0730484 -0.11528285,-0.12029415 -0.0174649,-0.0279442 -0.0309697,-0.0583945 -0.050123,-0.0852092 -0.006218,-0.008709 -0.0189265,-0.0112854 -0.0250615,-0.0200493 -0.004661,-0.006662 -0.0174809,-0.0699229 -0.0200492,-0.0801964 -8.0614e-4,-0.003246 0.001495,-0.007033 0,-0.0100254 -0.008055,-0.0161093 -0.019196,-0.009177 -0.0250616,-0.0150368 -0.005706,-0.005708 0.004522,-0.0283018 0,-0.0350861 -0.002072,-0.003108 -0.007383,-0.002366 -0.0100242,-0.005007 -0.001182,-0.001179 0.001495,-0.004265 0,-0.005018 -0.0171365,-0.008572 -0.0234044,0.003395 -0.0150368,-0.0300735 z"
         style="fill:#000000;stroke:#000000;stroke-width:0.264583px;stroke-linecap:butt;stroke-linejoin:miter;stroke-opacity:1" />
    </clipPath>
    <marker
       inkscape:stockid="Arrow1Mend"
       orient="auto"
       refY="0"
       refX="0"
       id="marker7179"
       style="overflow:visible"
       inkscape:isstock="true">
      <path
         id="path7177"
         d="M 0,0 5,-5 -12.5,0 5,5 Z"
         style="fill:#666666;fill-opacity:1;fill-rule:evenodd;stroke:#666666;stroke-width:1pt;stroke-opacity:1"
         transform="matrix(-0.4,0,0,-0.4,-4,0)" />
    </marker>
    <marker
       inkscape:isstock="true"
       style="overflow:visible"
       id="marker7241"
       refX="0"
       refY="0"
       orient="auto"
       inkscape:stockid="Arrow1Mend">
      <path
         transform="matrix(-0.4,0,0,-0.4,-4,0)"
         style="fill:#666666;fill-opacity:1;fill-rule:evenodd;stroke:#666666;stroke-width:1pt;stroke-opacity:1"
         d="M 0,0 5,-5 -12.5,0 5,5 Z"
         id="path7239" />
    </marker>
  </defs>
  <g
     inkscape:label="Layer 1"
     inkscape:groupmode="layer"
     id="layer1"
     transform="translate(-0.45913721,-0.26889901)">
    <g
       id="g2896"
       transform="translate(-3.825414,-57.081597)">
      <path
         id="path30"
         style="fill:none;stroke:#231f20;stroke-width:0.352778;stroke-linecap:butt;stroke-linejoin:miter;stroke-miterlimit:10;stroke-dasharray:none;stroke-opacity:1"
         d="M 15.69126,97.978505 H 43.50179 V 70.167625 H 15.69126 Z" />
      <path
         id="path32"
         style="fill:none;stroke:#231f20;stroke-width:0.352778;stroke-linecap:butt;stroke-linejoin:miter;stroke-miterlimit:10;stroke-dasharray:none;stroke-opacity:1"
         d="M 4.4609402,85.337415 H 32.27146 V 57.526885 H 4.4609402 Z" />
      <path
         d="M 4.4610802,57.526535 15.69105,70.167625"
         style="fill:none;stroke:#231f20;stroke-width:0.352778;stroke-linecap:butt;stroke-linejoin:miter;stroke-miterlimit:10;stroke-dasharray:none;stroke-opacity:1"
         id="path36" />
      <path
         d="M 4.4610802,85.337245 15.69105,97.978325"
         style="fill:none;stroke:#231f20;stroke-width:0.352778;stroke-linecap:butt;stroke-linejoin:miter;stroke-miterlimit:10;stroke-dasharray:none;stroke-opacity:1"
         id="path40" />
      <path
         d="m 32.27161,85.337245 11.23032,12.64108"
         style="fill:none;stroke:#231f20;stroke-width:0.352778;stroke-linecap:butt;stroke-linejoin:miter;stroke-miterlimit:10;stroke-dasharray:none;stroke-opacity:1"
         id="path44" />
      <path
         d="m 32.27161,57.526535 11.23032,12.64109"
         style="fill:none;stroke:#231f20;stroke-width:0.352778;stroke-linecap:butt;stroke-linejoin:miter;stroke-miterlimit:10;stroke-dasharray:none;stroke-opacity:1"
         id="path48" />
    </g>
    <rect
       y="4.0839872"
       x="61.792282"
       height="32.525021"
       width="95.28804"
       id="rect6552"
       style="fill:#ececec;stroke:none;stroke-width:0.176388;stroke-linecap:round;stroke-miterlimit:4;stroke-dasharray:none;stroke-opacity:1" />
    <path
       style="fill:none;stroke:#ffffff;stroke-width:0.264583px;stroke-linecap:round;stroke-linejoin:miter;stroke-opacity:1"
       d="m 61.6413,5.4332402 h 94.59973"
       id="path6571" />
    <path
       d="m 71.974707,35.11067 h -8.740358 8.740358"
       style="fill:#f9b29d;fill-opacity:1;fill-rule:nonzero;stroke:none;stroke-width:0.0352778"
       id="path2754" />
    <path
       style="fill:none;stroke:#ffffff;stroke-width:0.264583px;stroke-linecap:round;stroke-linejoin:miter;stroke-opacity:1"
       d="m 61.6413,35.30061 h 94.59973"
       id="path6575" />
    <text
       id="text6704"
       y="40.798187"
       x="152.59505"
       style="font-style:normal;font-variant:normal;font-weight:normal;font-stretch:normal;font-size:3.52777px;line-height:1.25;font-family:Arial;-inkscape-font-specification:'Arial, Normal';font-variant-ligatures:normal;font-variant-caps:normal;font-variant-numeric:normal;font-feature-settings:normal;text-align:center;letter-spacing:0px;word-spacing:0px;writing-mode:lr-tb;text-anchor:middle;fill:#000000;fill-opacity:1;stroke:none;stroke-width:0.264583"
       xml:space="preserve"><tspan
         style="stroke-width:0.264583"
         y="40.798187"
         x="152.59505"
         id="tspan6702"
         sodipodi:role="line">Time</tspan></text>
    <g
       id="g926"
       transform="matrix(0.642868,0,0,0.64316342,-22.902795,-158.43143)"
       style="stroke-width:1.55517">
      <path
         d="M 117.3176,262.99377 H 127.63 v -10.3124"
         style="fill:none;stroke:#231f20;stroke-width:0.54863;stroke-linecap:butt;stroke-linejoin:miter;stroke-miterlimit:10;stroke-dasharray:none;stroke-opacity:1"
         id="path52" />
      <path
         id="path54"
         style="fill:none;stroke:#231f20;stroke-width:0.54863;stroke-linecap:butt;stroke-linejoin:miter;stroke-miterlimit:10;stroke-dasharray:none;stroke-opacity:1"
         d="m 113.15344,258.30641 h 10.3124 v -10.3124 h -10.3124 z" />
      <path
         d="m 113.15351,258.30638 4.16419,4.68736"
         style="fill:none;stroke:#231f20;stroke-width:0.54863;stroke-linecap:butt;stroke-linejoin:miter;stroke-miterlimit:10;stroke-dasharray:none;stroke-opacity:1"
         id="path58" />
      <path
         d="m 123.46606,258.30638 4.16418,4.68736"
         style="fill:none;stroke:#231f20;stroke-width:0.54863;stroke-linecap:butt;stroke-linejoin:miter;stroke-miterlimit:10;stroke-dasharray:none;stroke-opacity:1"
         id="path62" />
      <path
         d="m 123.46606,247.9938 4.16418,4.68736"
         style="fill:none;stroke:#231f20;stroke-width:0.54863;stroke-linecap:butt;stroke-linejoin:miter;stroke-miterlimit:10;stroke-dasharray:none;stroke-opacity:1"
         id="path66" />
    </g>
    <g
       id="g933"
       transform="matrix(0.63907663,0,0,0.6429381,-35.376363,-129.36058)"
       style="stroke-width:1.56005">
      <path
         id="path68"
         style="fill:none;stroke:#231f20;stroke-width:0.550352;stroke-linecap:butt;stroke-linejoin:miter;stroke-miterlimit:10;stroke-dasharray:none;stroke-opacity:1"
         d="m 137.37763,262.99377 h 10.31241 v -10.3124 h -10.31241 z" />
      <path
         d="m 143.52581,247.9938 h -10.3124 v 10.3124"
         style="fill:none;stroke:#231f20;stroke-width:0.550352;stroke-linecap:butt;stroke-linejoin:miter;stroke-miterlimit:10;stroke-dasharray:none;stroke-opacity:1"
         id="path72" />
      <path
         d="m 133.21327,247.9938 4.16454,4.68736"
         style="fill:none;stroke:#231f20;stroke-width:0.550352;stroke-linecap:butt;stroke-linejoin:miter;stroke-miterlimit:10;stroke-dasharray:none;stroke-opacity:1"
         id="path76" />
      <path
         d="m 133.21327,258.30638 4.16454,4.68736"
         style="fill:none;stroke:#231f20;stroke-width:0.550352;stroke-linecap:butt;stroke-linejoin:miter;stroke-miterlimit:10;stroke-dasharray:none;stroke-opacity:1"
         id="path80" />
      <path
         d="m 143.52581,247.9938 4.16454,4.68736"
         style="fill:none;stroke:#231f20;stroke-width:0.550352;stroke-linecap:butt;stroke-linejoin:miter;stroke-miterlimit:10;stroke-dasharray:none;stroke-opacity:1"
         id="path84" />
    </g>
    <path
       style="fill:none;stroke:#000000;stroke-width:0.264583px;stroke-linecap:butt;stroke-linejoin:miter;stroke-opacity:1"
       d="m 64.634134,5.4332402 h 20.74019"
       id="path2597" />
    <path
       style="fill:none;stroke:#000000;stroke-width:0.264583px;stroke-linecap:butt;stroke-linejoin:miter;stroke-opacity:1"
       d="m 64.634134,5.4332402 h 20.74019"
       id="path2679" />
    <path
       style="fill:none;stroke:#000000;stroke-width:0.264583px;stroke-linecap:butt;stroke-linejoin:miter;stroke-opacity:1"
       d="M 85.374324,35.30061 H 97.374919"
       id="path2681" />
    <path
       style="fill:none;stroke:#000000;stroke-width:0.264583px;stroke-linecap:butt;stroke-linejoin:miter;stroke-opacity:1"
       d="m 97.374919,5.4332402 h 8.348251"
       id="path2683" />
    <path
       style="fill:none;stroke:#000000;stroke-width:0.264583px;stroke-linecap:butt;stroke-linejoin:miter;stroke-opacity:1"
       d="m 105.72317,35.30061 h 18.78357"
       id="path2685" />
    <path
       style="fill:none;stroke:#000000;stroke-width:0.264583px;stroke-linecap:butt;stroke-linejoin:miter;stroke-opacity:1"
       d="m 124.50674,5.4332402 h 29.08844"
       id="path2687" />
    <path
       style="fill:none;stroke:#000000;stroke-width:0.264583px;stroke-linecap:butt;stroke-linejoin:miter;stroke-opacity:1"
       d="M 85.374323,5.4332402 V 35.30061"
       id="path2802" />
    <path
       style="fill:none;stroke:#000000;stroke-width:0.264583px;stroke-linecap:butt;stroke-linejoin:miter;stroke-opacity:1"
       d="M 97.242629,5.4332402 V 35.30061"
       id="path2884" />
    <path
       style="fill:none;stroke:#000000;stroke-width:0.264583px;stroke-linecap:butt;stroke-linejoin:miter;stroke-opacity:1"
       d="M 105.59088,5.4332402 V 35.30061"
       id="path2886" />
    <path
       style="fill:none;stroke:#000000;stroke-width:0.264583px;stroke-linecap:butt;stroke-linejoin:miter;stroke-opacity:1"
       d="M 124.37445,5.4332402 V 35.30061"
       id="path2888" />
  </g>
</svg>
